<svg xmlns="http://www.w3.org/2000/svg" width="1200" height="600" viewBox="0 0 1200 600"><defs><linearGradient id="bg" x2="1" y2="1"><stop stop-color="#173e41"/><stop offset="1" stop-color="#457567"/></linearGradient><linearGradient id="sky" x2="0" y2="1"><stop stop-color="#9cc0b6"/><stop offset="1" stop-color="#e6dcba"/></linearGradient><clipPath id="win"><path d="M834 106a140 140 0 0 1 140 140v300H694V246a140 140 0 0 1 140-140Z"/></clipPath></defs><rect width="1200" height="600" rx="28" fill="url(#bg)"/><circle cx="901" cy="257" r="270" fill="#a3c8a0" opacity=".14"/><text x="92" y="136" fill="#d6e5bb" font-family="Arial,sans-serif" font-size="22" letter-spacing="5">A QUIET PLACE FOR YOUR IDEAS</text><text x="88" y="274" fill="#fffdf0" font-family="Georgia,serif" font-size="84" font-weight="bold">rain<tspan fill="#dce8af">desk</tspan></text><text x="95" y="351" fill="#e1ebd6" font-family="Arial,sans-serif" font-size="30">给灵感一个落脚点。</text><rect x="95" y="404" width="166" height="50" rx="9" fill="#dceabf"/><text x="124" y="437" fill="#234548" font-family="Arial,sans-serif" font-size="21" font-weight="bold">开始探索 →</text><path d="M834 98a148 148 0 0 1 148 148v307H686V246A148 148 0 0 1 834 98Z" fill="#d6e3c5"/><g clip-path="url(#win)"><rect x="694" y="106" width="280" height="440" fill="url(#sky)"/><circle cx="767" cy="221" r="46" fill="#f9e9b7"/><path d="M640 490q140-180 280 0v150H640Z" fill="#8bb09c"/><path d="M690 503q155-144 310 20v130H690Z" fill="#4b8679"/><path d="M839 106v440" stroke="#dce7cf" stroke-width="8"/><g stroke="#fff" stroke-width="3" opacity=".7"><path d="m734 173-4 24m160 58-4 24m-99 94-4 24m130 54-4 24"/></g></g><path d="M667 548h340" stroke="#dce8ce" stroke-width="14" stroke-linecap="round"/><text x="1015" y="521" fill="#d9e8cf" font-family="Arial,sans-serif" font-size="12" letter-spacing="1">AFTER THE RAIN</text></svg>
